<svg width="800px" height="800px" viewBox="0 0 24 24" fill="none" xmlns="http://www.w3.org/2000/svg"><path d="M10 14H12M12 14H14M12 14V16M12 14V12" opacity="0.5" stroke="#b3b3b3" stroke-width="1.5" stroke-linecap="round"/><path d="M2 6.95C2 6.067 2 5.626 2.069 5.258 2.375 3.64 3.64 2.375 5.258 2.069 5.626 2 6.067 2 6.95 2 7.336 2 7.53 2 7.716 2.017 8.517 2.092 9.277 2.407 9.896 2.921 10.04 3.04 10.176 3.176 10.45 3.45L11 4C11.816 4.816 12.224 5.224 12.712 5.495 12.98 5.645 13.265 5.763 13.56 5.847 14.098 6 14.675 6 15.828 6H16.202C18.834 6 20.151 6 21.006 6.769 21.085 6.84 21.16 6.915 21.23 6.994 22 7.849 22 9.166 22 11.798V14C22 17.771 22 19.657 20.828 20.828 19.657 22 17.771 22 14 22H10C6.229 22 4.343 22 3.172 20.828 2 19.657 2 17.771 2 14V6.95Z" fill-opacity="0" stroke="#b3b3b3" stroke-width="1.5"/></svg>