<svg width="800px" height="800px" viewBox="0 -0.5 21 21" version="1.1" xmlns="http://www.w3.org/2000/svg" xmlns:xlink="http://www.w3.org/1999/xlink"><title/><desc/><defs/><g id="Page-1" stroke="none" stroke-width="1" fill="none" fill-rule="evenodd"><g id="Dribbble-Light-Preview" transform="translate(-99.000000, -680.000000)" fill="#000000"><g id="icons" transform="translate(56.000000, 160.000000)"><path d="M50.219 525 52.319 525 52.319 523 50.219 523 50.219 525ZM61.9 538 59.8 538 59.8 532 58.881 532 57.7 532 49.3 532 47.528 532 47.2 532 47.2 538 45.1 538 45.1 526.837 47.2 524.837 47.2 528 48.119 528 49.3 528 57.7 528 59.471 528 59.8 528 59.8 522 61.9 522 61.9 538ZM49.3 538 57.7 538 57.7 534 49.3 534 49.3 538ZM49.3 522.837 50.179 522 57.7 522 57.7 526 49.3 526 49.3 522.837ZM63.966 520 61.866 520 49.3 520 49.3 520.008 47.208 522 47.2 522 47.2 522.008 43.008 526 43 526 43 538 43 540 45.1 540 61.866 540 63.966 540 64 540 64 538 64 522 64 520 63.966 520Z" fill="#b3b3b3" id="save_item-[#1409]"/></g></g></g></svg>